<svg width="97" height="18" xmlns="http://www.w3.org/2000/svg"><path d="M50.462 17.214c-1.291 0-2.266-.418-2.927-1.254-.63-.777-.945-1.892-.945-3.344v-1.034h2.067v1.034c0 .953.17 1.635.507 2.046.073.103.205.209.395.319.191.11.492.165.903.165.396 0 .71-.084.945-.253.235-.169.415-.374.54-.616.124-.242.205-.506.241-.792.037-.286.055-.539.055-.759 0-.381-.058-.704-.175-.968a2.103 2.103 0 0 0-.462-.671 2.835 2.835 0 0 0-.639-.462 10.283 10.283 0 0 0-.703-.341l-.397-.176a17.312 17.312 0 0 1-.89-.429 4.546 4.546 0 0 1-1.067-.781c-.88-.85-1.32-1.936-1.32-3.256 0-.69.091-1.32.274-1.892a4.19 4.19 0 0 1 .793-1.463A3.607 3.607 0 0 1 50.462 1c.792 0 1.418.14 1.88.418.463.279.81.565 1.046.858.63.807.946 1.929.946 3.366v1.034h-2.09V5.642c0-.63-.063-1.122-.188-1.474-.124-.352-.282-.605-.472-.759a1.217 1.217 0 0 0-.595-.275 3.817 3.817 0 0 0-.527-.044c-.426 0-.756.103-.99.308a2.063 2.063 0 0 0-.54.737 2.875 2.875 0 0 0-.23.858c-.03.286-.044.502-.044.649 0 .381.058.708.175.979.118.271.272.506.462.704.191.198.407.367.65.506.242.14.494.26.758.363l.352.154c.206.088.488.216.848.385.359.169.714.422 1.066.759.91.836 1.364 1.914 1.364 3.234 0 1.247-.307 2.28-.923 3.102-.72.924-1.702 1.386-2.948 1.386zm8.581 0c-.777 0-1.4-.14-1.87-.418-.47-.279-.821-.565-1.056-.858-.616-.792-.924-1.907-.924-3.344V5.62c0-1.437.308-2.552.924-3.344.118-.147.26-.293.43-.44.168-.147.373-.282.615-.407s.517-.227.825-.308c.308-.08.66-.121 1.056-.121.792 0 1.42.14 1.881.418.462.279.81.565 1.045.858.616.792.924 1.907.924 3.344v6.974c0 1.437-.308 2.552-.924 3.344-.234.293-.583.58-1.045.858-.462.279-1.089.418-1.88.418zm0-14.124c-.161 0-.34.015-.539.044-.198.03-.392.121-.583.275-.19.154-.348.403-.473.748-.124.345-.187.832-.187 1.463v6.974c0 .645.063 1.14.187 1.485.125.345.283.594.473.748.19.154.385.246.583.275.198.03.378.044.54.044.146 0 .322-.015.527-.044.206-.03.404-.121.594-.275.19-.154.349-.403.473-.748.125-.345.187-.84.187-1.485V5.62c0-.63-.062-1.118-.187-1.463-.124-.345-.282-.594-.473-.748a1.217 1.217 0 0 0-.594-.275 3.817 3.817 0 0 0-.528-.044zm8.56 14.124c-.733 0-1.32-.128-1.76-.385-.44-.257-.77-.532-.99-.825-.587-.719-.88-1.753-.88-3.102V1h2.068v11.902c0 .557.055.99.165 1.298.11.308.246.532.407.671.161.14.33.22.506.242.176.022.337.033.484.033.147 0 .308-.011.484-.033a.954.954 0 0 0 .506-.242c.161-.14.297-.363.407-.671.11-.308.165-.74.165-1.298V1h2.068v11.902c0 1.35-.293 2.383-.88 3.102-.22.293-.55.568-.99.825-.44.257-1.027.385-1.76.385zM79.045 9.25c.396.381.7.836.913 1.364.212.528.319 1.13.319 1.804v4.796h-2.09v-4.796c0-1.423-.69-2.134-2.068-2.134H74.82v6.93h-2.068V1h3.366c1.393 0 2.442.41 3.146 1.232.645.748.968 1.877.968 3.388 0 1.496-.323 2.633-.968 3.41a1.73 1.73 0 0 0-.1.11.567.567 0 0 1-.12.11zm-2.926-1.056c.557 0 .942-.066 1.155-.198.212-.132.348-.235.407-.308.322-.41.484-1.1.484-2.068 0-.543-.044-.979-.132-1.309-.088-.33-.217-.587-.385-.77a1.21 1.21 0 0 0-.638-.363 4.026 4.026 0 0 0-.891-.088H74.82v5.104h1.298zm9.528 9.042c-.396 0-.748-.04-1.056-.121a4.026 4.026 0 0 1-.825-.308 2.83 2.83 0 0 1-.616-.418 4.015 4.015 0 0 1-.43-.451c-.615-.792-.923-1.907-.923-3.344V5.642c0-1.437.308-2.552.924-3.344.234-.293.583-.58 1.045-.858.462-.279 1.089-.418 1.88-.418.793 0 1.416.14 1.87.418.455.279.8.565 1.035.858.63.807.946 1.921.946 3.344v1.034h-2.09V5.642c0-.63-.063-1.122-.187-1.474-.125-.352-.28-.605-.462-.759a1.155 1.155 0 0 0-.583-.275 3.817 3.817 0 0 0-.528-.044c-.162 0-.341.015-.54.044-.197.03-.392.121-.582.275-.191.154-.349.407-.473.759-.125.352-.187.843-.187 1.474v6.952c0 .953.168 1.643.506 2.068.073.103.205.213.396.33.19.117.484.176.88.176s.685-.059.869-.176c.183-.117.319-.227.407-.33.322-.44.484-1.13.484-2.068V11.56h2.09v1.034c0 1.423-.316 2.537-.946 3.344-.235.293-.58.583-1.034.869-.455.286-1.078.429-1.87.429zM96.912 3.09H92.27v4.994h4.642v2.068H92.27v5.016h4.642v2.068h-6.71V1.022h6.71V3.09z" fill="#418CFF"/><path d="M3.068 17.214H1V1h3.366c1.379 0 2.427.403 3.146 1.21.66.777.99 1.892.99 3.344 0 1.481-.33 2.603-.99 3.366-.704.821-1.753 1.232-3.146 1.232H3.068v7.062zm0-9.152h1.298c.572 0 .96-.066 1.166-.198.205-.132.337-.235.396-.308.323-.337.484-1.005.484-2.002 0-.528-.044-.953-.132-1.276-.088-.323-.216-.572-.385-.748a1.245 1.245 0 0 0-.638-.352 4.026 4.026 0 0 0-.891-.088H3.068v4.972zm9.868 9.152c-.733 0-1.32-.128-1.76-.385-.44-.257-.77-.532-.99-.825-.587-.719-.88-1.753-.88-3.102V1h2.068v11.902c0 .557.055.99.165 1.298.11.308.246.532.407.671.161.14.33.22.506.242.176.022.337.033.484.033.147 0 .308-.011.484-.033a.954.954 0 0 0 .506-.242c.161-.14.297-.363.407-.671.11-.308.165-.74.165-1.298V1h2.068v11.902c0 1.35-.293 2.383-.88 3.102-.22.293-.55.568-.99.825-.44.257-1.027.385-1.76.385zm11.122-8.096a.944.944 0 0 1 .176.22c.63.763.946 1.877.946 3.344 0 1.481-.315 2.589-.946 3.322-.66.821-1.672 1.232-3.036 1.232h-3.124V1.022h3.124c1.379 0 2.39.41 3.036 1.232.63.733.946 1.84.946 3.322 0 1.467-.315 2.581-.946 3.344-.03.044-.088.11-.176.198zm-3.916-1.034h1.056c.47 0 .806-.055 1.012-.165.205-.11.344-.216.418-.319.308-.367.462-1.041.462-2.024 0-.572-.048-1.023-.143-1.353-.096-.33-.227-.58-.396-.748a1.132 1.132 0 0 0-.605-.319 4.056 4.056 0 0 0-.748-.066h-1.056v4.994zm1.056 7.084c.264 0 .513-.022.748-.066a1.13 1.13 0 0 0 .605-.319c.169-.169.3-.418.396-.748.095-.33.143-.781.143-1.353 0-.587-.051-1.049-.154-1.386-.103-.337-.238-.59-.407-.759a1.127 1.127 0 0 0-.594-.319 3.88 3.88 0 0 0-.737-.066h-1.056v5.016h1.056zm12.068 2.046h-7.062V1h2.068v14.146h4.994v2.068zm3.356.022h-2.068V1.022h2.068v16.214zm5.424 0c-.396 0-.748-.04-1.056-.121a4.026 4.026 0 0 1-.825-.308 2.83 2.83 0 0 1-.616-.418 4.015 4.015 0 0 1-.43-.451c-.615-.792-.923-1.907-.923-3.344V5.642c0-1.437.308-2.552.924-3.344.234-.293.583-.58 1.045-.858.462-.279 1.089-.418 1.88-.418.793 0 1.416.14 1.87.418.455.279.8.565 1.035.858.63.807.946 1.921.946 3.344v1.034h-2.09V5.642c0-.63-.063-1.122-.187-1.474-.125-.352-.28-.605-.462-.759a1.155 1.155 0 0 0-.583-.275 3.817 3.817 0 0 0-.528-.044c-.162 0-.341.015-.54.044-.197.03-.392.121-.582.275-.191.154-.349.407-.473.759-.125.352-.187.843-.187 1.474v6.952c0 .953.168 1.643.506 2.068.073.103.205.213.396.33.19.117.484.176.88.176s.685-.059.869-.176c.183-.117.319-.227.407-.33.322-.44.484-1.13.484-2.068V11.56h2.09v1.034c0 1.423-.316 2.537-.946 3.344-.235.293-.58.583-1.034.869-.455.286-1.078.429-1.87.429z" fill="#000"/></svg>
